ISO-10303-21;
HEADER;
/* Generated by software containing ST-Developer
 * from STEP Tools, Inc. (www.steptools.com) 
 */

FILE_DESCRIPTION(
/* description */ (''),
/* implementation_level */ '2;1');

FILE_NAME(
/* name */ 'Pocket Audio Deck upper.step',
/* time_stamp */ '2026-07-30T13:48:12+09:00',
/* author */ (''),
/* organization */ (''),
/* preprocessor_version */ 'ST-DEVELOPER v20.1',
/* originating_system */ 'Autodesk Translation Framework v15.8.0.0',
/* authorisation */ '');

FILE_SCHEMA (('AUTOMOTIVE_DESIGN { 1 0 10303 214 3 1 1 }'));
ENDSEC;

DATA;
#10=MECHANICAL_DESIGN_GEOMETRIC_PRESENTATION_REPRESENTATION('',(#13),#1065);
#11=SHAPE_REPRESENTATION_RELATIONSHIP('SRR','None',#1072,#12);
#12=ADVANCED_BREP_SHAPE_REPRESENTATION('',(#14),#1064);
#13=STYLED_ITEM('',(#1081),#14);
#14=MANIFOLD_SOLID_BREP('\X2\30DC30C730A3\X0\1',#631);
#15=FACE_BOUND('',#89,.T.);
#16=FACE_BOUND('',#95,.T.);
#17=PLANE('',#648);
#18=PLANE('',#651);
#19=PLANE('',#655);
#20=PLANE('',#656);
#21=PLANE('',#659);
#22=PLANE('',#661);
#23=PLANE('',#663);
#24=PLANE('',#668);
#25=PLANE('',#669);
#26=PLANE('',#672);
#27=PLANE('',#675);
#28=PLANE('',#678);
#29=PLANE('',#681);
#30=PLANE('',#682);
#31=PLANE('',#686);
#32=PLANE('',#687);
#33=PLANE('',#688);
#34=PLANE('',#689);
#35=PLANE('',#690);
#36=PLANE('',#693);
#37=PLANE('',#696);
#38=PLANE('',#699);
#39=PLANE('',#700);
#40=FACE_OUTER_BOUND('',#74,.T.);
#41=FACE_OUTER_BOUND('',#75,.T.);
#42=FACE_OUTER_BOUND('',#76,.T.);
#43=FACE_OUTER_BOUND('',#77,.T.);
#44=FACE_OUTER_BOUND('',#78,.T.);
#45=FACE_OUTER_BOUND('',#79,.T.);
#46=FACE_OUTER_BOUND('',#80,.T.);
#47=FACE_OUTER_BOUND('',#81,.T.);
#48=FACE_OUTER_BOUND('',#82,.T.);
#49=FACE_OUTER_BOUND('',#83,.T.);
#50=FACE_OUTER_BOUND('',#84,.T.);
#51=FACE_OUTER_BOUND('',#85,.T.);
#52=FACE_OUTER_BOUND('',#86,.T.);
#53=FACE_OUTER_BOUND('',#87,.T.);
#54=FACE_OUTER_BOUND('',#88,.T.);
#55=FACE_OUTER_BOUND('',#90,.T.);
#56=FACE_OUTER_BOUND('',#91,.T.);
#57=FACE_OUTER_BOUND('',#92,.T.);
#58=FACE_OUTER_BOUND('',#93,.T.);
#59=FACE_OUTER_BOUND('',#94,.T.);
#60=FACE_OUTER_BOUND('',#96,.T.);
#61=FACE_OUTER_BOUND('',#97,.T.);
#62=FACE_OUTER_BOUND('',#98,.T.);
#63=FACE_OUTER_BOUND('',#99,.T.);
#64=FACE_OUTER_BOUND('',#100,.T.);
#65=FACE_OUTER_BOUND('',#101,.T.);
#66=FACE_OUTER_BOUND('',#102,.T.);
#67=FACE_OUTER_BOUND('',#103,.T.);
#68=FACE_OUTER_BOUND('',#104,.T.);
#69=FACE_OUTER_BOUND('',#105,.T.);
#70=FACE_OUTER_BOUND('',#106,.T.);
#71=FACE_OUTER_BOUND('',#107,.T.);
#72=FACE_OUTER_BOUND('',#108,.T.);
#73=FACE_OUTER_BOUND('',#109,.T.);
#74=EDGE_LOOP('',(#410,#411,#412,#413,#414));
#75=EDGE_LOOP('',(#415,#416,#417,#418,#419,#420,#421,#422));
#76=EDGE_LOOP('',(#423,#424,#425,#426,#427,#428,#429,#430,#431,#432));
#77=EDGE_LOOP('',(#433,#434,#435,#436,#437));
#78=EDGE_LOOP('',(#438,#439,#440,#441,#442,#443,#444,#445,#446,#447));
#79=EDGE_LOOP('',(#448,#449,#450,#451,#452,#453,#454,#455));
#80=EDGE_LOOP('',(#456));
#81=EDGE_LOOP('',(#457));
#82=EDGE_LOOP('',(#458,#459,#460,#461,#462,#463,#464,#465,#466,#467,#468,
#469,#470,#471));
#83=EDGE_LOOP('',(#472,#473,#474,#475));
#84=EDGE_LOOP('',(#476,#477,#478,#479));
#85=EDGE_LOOP('',(#480,#481,#482,#483));
#86=EDGE_LOOP('',(#484,#485,#486,#487));
#87=EDGE_LOOP('',(#488,#489,#490,#491));
#88=EDGE_LOOP('',(#492,#493,#494,#495));
#89=EDGE_LOOP('',(#496));
#90=EDGE_LOOP('',(#497,#498,#499,#500));
#91=EDGE_LOOP('',(#501,#502,#503,#504));
#92=EDGE_LOOP('',(#505,#506,#507,#508));
#93=EDGE_LOOP('',(#509,#510,#511,#512));
#94=EDGE_LOOP('',(#513,#514,#515,#516));
#95=EDGE_LOOP('',(#517));
#96=EDGE_LOOP('',(#518,#519,#520,#521));
#97=EDGE_LOOP('',(#522,#523,#524,#525));
#98=EDGE_LOOP('',(#526,#527,#528,#529));
#99=EDGE_LOOP('',(#530,#531,#532,#533,#534,#535,#536,#537));
#100=EDGE_LOOP('',(#538,#539,#540,#541));
#101=EDGE_LOOP('',(#542,#543,#544,#545));
#102=EDGE_LOOP('',(#546,#547,#548,#549));
#103=EDGE_LOOP('',(#550,#551,#552,#553));
#104=EDGE_LOOP('',(#554,#555,#556,#557));
#105=EDGE_LOOP('',(#558,#559,#560,#561));
#106=EDGE_LOOP('',(#562,#563,#564,#565,#566,#567,#568,#569));
#107=EDGE_LOOP('',(#570,#571,#572,#573));
#108=EDGE_LOOP('',(#574,#575,#576,#577));
#109=EDGE_LOOP('',(#578,#579,#580,#581,#582,#583,#584,#585));
#110=LINE('',#887,#176);
#111=LINE('',#891,#177);
#112=LINE('',#892,#178);
#113=LINE('',#895,#179);
#114=LINE('',#899,#180);
#115=LINE('',#901,#181);
#116=LINE('',#903,#182);
#117=LINE('',#906,#183);
#118=LINE('',#909,#184);
#119=LINE('',#911,#185);
#120=LINE('',#913,#186);
#121=LINE('',#915,#187);
#122=LINE('',#917,#188);
#123=LINE('',#919,#189);
#124=LINE('',#921,#190);
#125=LINE('',#922,#191);
#126=LINE('',#928,#192);
#127=LINE('',#930,#193);
#128=LINE('',#933,#194);
#129=LINE('',#936,#195);
#130=LINE('',#938,#196);
#131=LINE('',#940,#197);
#132=LINE('',#942,#198);
#133=LINE('',#944,#199);
#134=LINE('',#946,#200);
#135=LINE('',#948,#201);
#136=LINE('',#950,#202);
#137=LINE('',#951,#203);
#138=LINE('',#954,#204);
#139=LINE('',#958,#205);
#140=LINE('',#960,#206);
#141=LINE('',#962,#207);
#142=LINE('',#974,#208);
#143=LINE('',#977,#209);
#144=LINE('',#978,#210);
#145=LINE('',#980,#211);
#146=LINE('',#983,#212);
#147=LINE('',#986,#213);
#148=LINE('',#988,#214);
#149=LINE('',#991,#215);
#150=LINE('',#992,#216);
#151=LINE('',#995,#217);
#152=LINE('',#998,#218);
#153=LINE('',#1002,#219);
#154=LINE('',#1006,#220);
#155=LINE('',#1009,#221);
#156=LINE('',#1011,#222);
#157=LINE('',#1015,#223);
#158=LINE('',#1017,#224);
#159=LINE('',#1024,#225);
#160=LINE('',#1027,#226);
#161=LINE('',#1029,#227);
#162=LINE('',#1030,#228);
#163=LINE('',#1032,#229);
#164=LINE('',#1033,#230);
#165=LINE('',#1035,#231);
#166=LINE('',#1036,#232);
#167=LINE('',#1038,#233);
#168=LINE('',#1039,#234);
#169=LINE('',#1045,#235);
#170=LINE('',#1046,#236);
#171=LINE('',#1050,#237);
#172=LINE('',#1053,#238);
#173=LINE('',#1054,#239);
#174=LINE('',#1058,#240);
#175=LINE('',#1060,#241);
#176=VECTOR('',#707,10.);
#177=VECTOR('',#710,10.);
#178=VECTOR('',#711,10.);
#179=VECTOR('',#714,10.);
#180=VECTOR('',#717,10.);
#181=VECTOR('',#718,10.);
#182=VECTOR('',#719,10.);
#183=VECTOR('',#722,10.);
#184=VECTOR('',#725,10.);
#185=VECTOR('',#726,10.);
#186=VECTOR('',#727,10.);
#187=VECTOR('',#728,10.);
#188=VECTOR('',#729,10.);
#189=VECTOR('',#730,10.);
#190=VECTOR('',#731,10.);
#191=VECTOR('',#732,10.);
#192=VECTOR('',#737,10.);
#193=VECTOR('',#738,10.);
#194=VECTOR('',#741,10.);
#195=VECTOR('',#744,10.);
#196=VECTOR('',#745,10.);
#197=VECTOR('',#746,10.);
#198=VECTOR('',#747,10.);
#199=VECTOR('',#748,10.);
#200=VECTOR('',#749,10.);
#201=VECTOR('',#750,10.);
#202=VECTOR('',#751,10.);
#203=VECTOR('',#752,10.);
#204=VECTOR('',#755,10.);
#205=VECTOR('',#758,10.);
#206=VECTOR('',#759,10.);
#207=VECTOR('',#760,10.);
#208=VECTOR('',#775,10.);
#209=VECTOR('',#778,10.);
#210=VECTOR('',#779,10.);
#211=VECTOR('',#780,10.);
#212=VECTOR('',#783,10.);
#213=VECTOR('',#786,10.);
#214=VECTOR('',#789,10.);
#215=VECTOR('',#792,10.);
#216=VECTOR('',#793,10.);
#217=VECTOR('',#796,10.);
#218=VECTOR('',#801,10.);
#219=VECTOR('',#806,0.775);
#220=VECTOR('',#811,10.);
#221=VECTOR('',#814,10.);
#222=VECTOR('',#817,10.);
#223=VECTOR('',#822,0.775);
#224=VECTOR('',#825,10.);
#225=VECTOR('',#832,10.);
#226=VECTOR('',#835,10.);
#227=VECTOR('',#838,10.);
#228=VECTOR('',#839,10.);
#229=VECTOR('',#842,10.);
#230=VECTOR('',#843,10.);
#231=VECTOR('',#846,10.);
#232=VECTOR('',#847,10.);
#233=VECTOR('',#850,10.);
#234=VECTOR('',#851,10.);
#235=VECTOR('',#860,10.);
#236=VECTOR('',#861,10.);
#237=VECTOR('',#866,10.);
#238=VECTOR('',#869,10.);
#239=VECTOR('',#870,10.);
#240=VECTOR('',#875,10.);
#241=VECTOR('',#878,10.);
#242=CIRCLE('',#646,3.);
#243=CIRCLE('',#647,3.);
#244=CIRCLE('',#649,1.14999999999999);
#245=CIRCLE('',#650,2.5);
#246=CIRCLE('',#653,3.);
#247=CIRCLE('',#654,3.);
#248=CIRCLE('',#657,2.5);
#249=CIRCLE('',#658,1.15);
#250=CIRCLE('',#660,0.775);
#251=CIRCLE('',#662,0.775);
#252=CIRCLE('',#664,1.14999999999999);
#253=CIRCLE('',#665,1.75);
#254=CIRCLE('',#666,1.75);
#255=CIRCLE('',#667,1.15);
#256=CIRCLE('',#671,1.75);
#257=CIRCLE('',#674,0.775);
#258=CIRCLE('',#677,1.75);
#259=CIRCLE('',#680,0.775);
#260=CIRCLE('',#684,2.35);
#261=CIRCLE('',#685,2.35);
#262=CIRCLE('',#695,2.5);
#263=CIRCLE('',#698,2.5);
#264=VERTEX_POINT('',#883);
#265=VERTEX_POINT('',#884);
#266=VERTEX_POINT('',#886);
#267=VERTEX_POINT('',#888);
#268=VERTEX_POINT('',#890);
#269=VERTEX_POINT('',#894);
#270=VERTEX_POINT('',#896);
#271=VERTEX_POINT('',#898);
#272=VERTEX_POINT('',#900);
#273=VERTEX_POINT('',#902);
#274=VERTEX_POINT('',#904);
#275=VERTEX_POINT('',#908);
#276=VERTEX_POINT('',#910);
#277=VERTEX_POINT('',#912);
#278=VERTEX_POINT('',#914);
#279=VERTEX_POINT('',#916);
#280=VERTEX_POINT('',#918);
#281=VERTEX_POINT('',#920);
#282=VERTEX_POINT('',#924);
#283=VERTEX_POINT('',#925);
#284=VERTEX_POINT('',#927);
#285=VERTEX_POINT('',#929);
#286=VERTEX_POINT('',#931);
#287=VERTEX_POINT('',#935);
#288=VERTEX_POINT('',#937);
#289=VERTEX_POINT('',#939);
#290=VERTEX_POINT('',#941);
#291=VERTEX_POINT('',#943);
#292=VERTEX_POINT('',#945);
#293=VERTEX_POINT('',#947);
#294=VERTEX_POINT('',#949);
#295=VERTEX_POINT('',#953);
#296=VERTEX_POINT('',#955);
#297=VERTEX_POINT('',#957);
#298=VERTEX_POINT('',#959);
#299=VERTEX_POINT('',#961);
#300=VERTEX_POINT('',#965);
#301=VERTEX_POINT('',#968);
#302=VERTEX_POINT('',#971);
#303=VERTEX_POINT('',#973);
#304=VERTEX_POINT('',#975);
#305=VERTEX_POINT('',#979);
#306=VERTEX_POINT('',#981);
#307=VERTEX_POINT('',#984);
#308=VERTEX_POINT('',#990);
#309=VERTEX_POINT('',#994);
#310=VERTEX_POINT('',#1000);
#311=VERTEX_POINT('',#1005);
#312=VERTEX_POINT('',#1007);
#313=VERTEX_POINT('',#1013);
#314=VERTEX_POINT('',#1020);
#315=VERTEX_POINT('',#1021);
#316=VERTEX_POINT('',#1023);
#317=VERTEX_POINT('',#1025);
#318=VERTEX_POINT('',#1044);
#319=VERTEX_POINT('',#1048);
#320=VERTEX_POINT('',#1052);
#321=VERTEX_POINT('',#1056);
#322=EDGE_CURVE('',#264,#265,#242,.T.);
#323=EDGE_CURVE('',#264,#266,#110,.T.);
#324=EDGE_CURVE('',#267,#266,#243,.T.);
#325=EDGE_CURVE('',#267,#268,#111,.T.);
#326=EDGE_CURVE('',#265,#268,#112,.T.);
#327=EDGE_CURVE('',#269,#265,#113,.T.);
#328=EDGE_CURVE('',#269,#270,#244,.T.);
#329=EDGE_CURVE('',#271,#270,#114,.T.);
#330=EDGE_CURVE('',#271,#272,#115,.T.);
#331=EDGE_CURVE('',#273,#272,#116,.T.);
#332=EDGE_CURVE('',#274,#273,#245,.T.);
#333=EDGE_CURVE('',#264,#274,#117,.T.);
#334=EDGE_CURVE('',#268,#275,#118,.T.);
#335=EDGE_CURVE('',#275,#276,#119,.T.);
#336=EDGE_CURVE('',#276,#277,#120,.T.);
#337=EDGE_CURVE('',#277,#278,#121,.T.);
#338=EDGE_CURVE('',#278,#279,#122,.T.);
#339=EDGE_CURVE('',#279,#280,#123,.T.);
#340=EDGE_CURVE('',#280,#281,#124,.T.);
#341=EDGE_CURVE('',#269,#281,#125,.T.);
#342=EDGE_CURVE('',#282,#283,#246,.T.);
#343=EDGE_CURVE('',#284,#282,#126,.T.);
#344=EDGE_CURVE('',#284,#285,#127,.T.);
#345=EDGE_CURVE('',#286,#285,#247,.T.);
#346=EDGE_CURVE('',#283,#286,#128,.T.);
#347=EDGE_CURVE('',#282,#287,#129,.T.);
#348=EDGE_CURVE('',#287,#288,#130,.T.);
#349=EDGE_CURVE('',#288,#289,#131,.T.);
#350=EDGE_CURVE('',#289,#290,#132,.T.);
#351=EDGE_CURVE('',#290,#291,#133,.T.);
#352=EDGE_CURVE('',#291,#292,#134,.T.);
#353=EDGE_CURVE('',#292,#293,#135,.T.);
#354=EDGE_CURVE('',#293,#294,#136,.T.);
#355=EDGE_CURVE('',#294,#284,#137,.T.);
#356=EDGE_CURVE('',#295,#283,#138,.T.);
#357=EDGE_CURVE('',#296,#295,#248,.T.);
#358=EDGE_CURVE('',#297,#296,#139,.T.);
#359=EDGE_CURVE('',#297,#298,#140,.T.);
#360=EDGE_CURVE('',#299,#298,#141,.T.);
#361=EDGE_CURVE('',#299,#287,#249,.T.);
#362=EDGE_CURVE('',#300,#300,#250,.T.);
#363=EDGE_CURVE('',#301,#301,#251,.T.);
#364=EDGE_CURVE('',#281,#302,#252,.T.);
#365=EDGE_CURVE('',#303,#280,#142,.T.);
#366=EDGE_CURVE('',#304,#303,#253,.T.);
#367=EDGE_CURVE('',#277,#304,#143,.T.);
#368=EDGE_CURVE('',#293,#276,#144,.T.);
#369=EDGE_CURVE('',#305,#292,#145,.T.);
#370=EDGE_CURVE('',#306,#305,#254,.T.);
#371=EDGE_CURVE('',#289,#306,#146,.T.);
#372=EDGE_CURVE('',#307,#288,#255,.T.);
#373=EDGE_CURVE('',#302,#307,#147,.T.);
#374=EDGE_CURVE('',#294,#275,#148,.T.);
#375=EDGE_CURVE('',#304,#308,#149,.T.);
#376=EDGE_CURVE('',#278,#308,#150,.F.);
#377=EDGE_CURVE('',#303,#309,#151,.T.);
#378=EDGE_CURVE('',#308,#309,#256,.F.);
#379=EDGE_CURVE('',#309,#279,#152,.F.);
#380=EDGE_CURVE('',#310,#310,#257,.F.);
#381=EDGE_CURVE('',#310,#301,#153,.T.);
#382=EDGE_CURVE('',#305,#311,#154,.T.);
#383=EDGE_CURVE('',#312,#311,#258,.F.);
#384=EDGE_CURVE('',#306,#312,#155,.T.);
#385=EDGE_CURVE('',#290,#312,#156,.F.);
#386=EDGE_CURVE('',#313,#313,#259,.F.);
#387=EDGE_CURVE('',#313,#300,#157,.T.);
#388=EDGE_CURVE('',#311,#291,#158,.F.);
#389=EDGE_CURVE('',#314,#315,#260,.T.);
#390=EDGE_CURVE('',#316,#314,#159,.T.);
#391=EDGE_CURVE('',#317,#316,#261,.T.);
#392=EDGE_CURVE('',#317,#315,#160,.T.);
#393=EDGE_CURVE('',#315,#271,#161,.T.);
#394=EDGE_CURVE('',#272,#317,#162,.T.);
#395=EDGE_CURVE('',#298,#314,#163,.T.);
#396=EDGE_CURVE('',#316,#297,#164,.T.);
#397=EDGE_CURVE('',#299,#307,#165,.T.);
#398=EDGE_CURVE('',#270,#302,#166,.T.);
#399=EDGE_CURVE('',#267,#285,#167,.T.);
#400=EDGE_CURVE('',#268,#284,#168,.T.);
#401=EDGE_CURVE('',#318,#286,#169,.T.);
#402=EDGE_CURVE('',#295,#318,#170,.T.);
#403=EDGE_CURVE('',#319,#318,#262,.T.);
#404=EDGE_CURVE('',#296,#319,#171,.T.);
#405=EDGE_CURVE('',#320,#319,#172,.T.);
#406=EDGE_CURVE('',#273,#320,#173,.T.);
#407=EDGE_CURVE('',#321,#320,#263,.T.);
#408=EDGE_CURVE('',#274,#321,#174,.T.);
#409=EDGE_CURVE('',#266,#321,#175,.T.);
#410=ORIENTED_EDGE('',*,*,#322,.F.);
#411=ORIENTED_EDGE('',*,*,#323,.T.);
#412=ORIENTED_EDGE('',*,*,#324,.F.);
#413=ORIENTED_EDGE('',*,*,#325,.T.);
#414=ORIENTED_EDGE('',*,*,#326,.F.);
#415=ORIENTED_EDGE('',*,*,#322,.T.);
#416=ORIENTED_EDGE('',*,*,#327,.F.);
#417=ORIENTED_EDGE('',*,*,#328,.T.);
#418=ORIENTED_EDGE('',*,*,#329,.F.);
#419=ORIENTED_EDGE('',*,*,#330,.T.);
#420=ORIENTED_EDGE('',*,*,#331,.F.);
#421=ORIENTED_EDGE('',*,*,#332,.F.);
#422=ORIENTED_EDGE('',*,*,#333,.F.);
#423=ORIENTED_EDGE('',*,*,#326,.T.);
#424=ORIENTED_EDGE('',*,*,#334,.T.);
#425=ORIENTED_EDGE('',*,*,#335,.T.);
#426=ORIENTED_EDGE('',*,*,#336,.T.);
#427=ORIENTED_EDGE('',*,*,#337,.T.);
#428=ORIENTED_EDGE('',*,*,#338,.T.);
#429=ORIENTED_EDGE('',*,*,#339,.T.);
#430=ORIENTED_EDGE('',*,*,#340,.T.);
#431=ORIENTED_EDGE('',*,*,#341,.F.);
#432=ORIENTED_EDGE('',*,*,#327,.T.);
#433=ORIENTED_EDGE('',*,*,#342,.F.);
#434=ORIENTED_EDGE('',*,*,#343,.F.);
#435=ORIENTED_EDGE('',*,*,#344,.T.);
#436=ORIENTED_EDGE('',*,*,#345,.F.);
#437=ORIENTED_EDGE('',*,*,#346,.F.);
#438=ORIENTED_EDGE('',*,*,#343,.T.);
#439=ORIENTED_EDGE('',*,*,#347,.T.);
#440=ORIENTED_EDGE('',*,*,#348,.T.);
#441=ORIENTED_EDGE('',*,*,#349,.T.);
#442=ORIENTED_EDGE('',*,*,#350,.T.);
#443=ORIENTED_EDGE('',*,*,#351,.T.);
#444=ORIENTED_EDGE('',*,*,#352,.T.);
#445=ORIENTED_EDGE('',*,*,#353,.T.);
#446=ORIENTED_EDGE('',*,*,#354,.T.);
#447=ORIENTED_EDGE('',*,*,#355,.T.);
#448=ORIENTED_EDGE('',*,*,#342,.T.);
#449=ORIENTED_EDGE('',*,*,#356,.F.);
#450=ORIENTED_EDGE('',*,*,#357,.F.);
#451=ORIENTED_EDGE('',*,*,#358,.F.);
#452=ORIENTED_EDGE('',*,*,#359,.T.);
#453=ORIENTED_EDGE('',*,*,#360,.F.);
#454=ORIENTED_EDGE('',*,*,#361,.T.);
#455=ORIENTED_EDGE('',*,*,#347,.F.);
#456=ORIENTED_EDGE('',*,*,#362,.F.);
#457=ORIENTED_EDGE('',*,*,#363,.F.);
#458=ORIENTED_EDGE('',*,*,#364,.F.);
#459=ORIENTED_EDGE('',*,*,#340,.F.);
#460=ORIENTED_EDGE('',*,*,#365,.F.);
#461=ORIENTED_EDGE('',*,*,#366,.F.);
#462=ORIENTED_EDGE('',*,*,#367,.F.);
#463=ORIENTED_EDGE('',*,*,#336,.F.);
#464=ORIENTED_EDGE('',*,*,#368,.F.);
#465=ORIENTED_EDGE('',*,*,#353,.F.);
#466=ORIENTED_EDGE('',*,*,#369,.F.);
#467=ORIENTED_EDGE('',*,*,#370,.F.);
#468=ORIENTED_EDGE('',*,*,#371,.F.);
#469=ORIENTED_EDGE('',*,*,#349,.F.);
#470=ORIENTED_EDGE('',*,*,#372,.F.);
#471=ORIENTED_EDGE('',*,*,#373,.F.);
#472=ORIENTED_EDGE('',*,*,#368,.T.);
#473=ORIENTED_EDGE('',*,*,#335,.F.);
#474=ORIENTED_EDGE('',*,*,#374,.F.);
#475=ORIENTED_EDGE('',*,*,#354,.F.);
#476=ORIENTED_EDGE('',*,*,#367,.T.);
#477=ORIENTED_EDGE('',*,*,#375,.T.);
#478=ORIENTED_EDGE('',*,*,#376,.F.);
#479=ORIENTED_EDGE('',*,*,#337,.F.);
#480=ORIENTED_EDGE('',*,*,#366,.T.);
#481=ORIENTED_EDGE('',*,*,#377,.T.);
#482=ORIENTED_EDGE('',*,*,#378,.F.);
#483=ORIENTED_EDGE('',*,*,#375,.F.);
#484=ORIENTED_EDGE('',*,*,#365,.T.);
#485=ORIENTED_EDGE('',*,*,#339,.F.);
#486=ORIENTED_EDGE('',*,*,#379,.F.);
#487=ORIENTED_EDGE('',*,*,#377,.F.);
#488=ORIENTED_EDGE('',*,*,#380,.F.);
#489=ORIENTED_EDGE('',*,*,#381,.T.);
#490=ORIENTED_EDGE('',*,*,#363,.T.);
#491=ORIENTED_EDGE('',*,*,#381,.F.);
#492=ORIENTED_EDGE('',*,*,#378,.T.);
#493=ORIENTED_EDGE('',*,*,#379,.T.);
#494=ORIENTED_EDGE('',*,*,#338,.F.);
#495=ORIENTED_EDGE('',*,*,#376,.T.);
#496=ORIENTED_EDGE('',*,*,#380,.T.);
#497=ORIENTED_EDGE('',*,*,#370,.T.);
#498=ORIENTED_EDGE('',*,*,#382,.T.);
#499=ORIENTED_EDGE('',*,*,#383,.F.);
#500=ORIENTED_EDGE('',*,*,#384,.F.);
#501=ORIENTED_EDGE('',*,*,#371,.T.);
#502=ORIENTED_EDGE('',*,*,#384,.T.);
#503=ORIENTED_EDGE('',*,*,#385,.F.);
#504=ORIENTED_EDGE('',*,*,#350,.F.);
#505=ORIENTED_EDGE('',*,*,#386,.F.);
#506=ORIENTED_EDGE('',*,*,#387,.T.);
#507=ORIENTED_EDGE('',*,*,#362,.T.);
#508=ORIENTED_EDGE('',*,*,#387,.F.);
#509=ORIENTED_EDGE('',*,*,#369,.T.);
#510=ORIENTED_EDGE('',*,*,#352,.F.);
#511=ORIENTED_EDGE('',*,*,#388,.F.);
#512=ORIENTED_EDGE('',*,*,#382,.F.);
#513=ORIENTED_EDGE('',*,*,#385,.T.);
#514=ORIENTED_EDGE('',*,*,#383,.T.);
#515=ORIENTED_EDGE('',*,*,#388,.T.);
#516=ORIENTED_EDGE('',*,*,#351,.F.);
#517=ORIENTED_EDGE('',*,*,#386,.T.);
#518=ORIENTED_EDGE('',*,*,#389,.F.);
#519=ORIENTED_EDGE('',*,*,#390,.F.);
#520=ORIENTED_EDGE('',*,*,#391,.F.);
#521=ORIENTED_EDGE('',*,*,#392,.T.);
#522=ORIENTED_EDGE('',*,*,#393,.F.);
#523=ORIENTED_EDGE('',*,*,#392,.F.);
#524=ORIENTED_EDGE('',*,*,#394,.F.);
#525=ORIENTED_EDGE('',*,*,#330,.F.);
#526=ORIENTED_EDGE('',*,*,#395,.F.);
#527=ORIENTED_EDGE('',*,*,#359,.F.);
#528=ORIENTED_EDGE('',*,*,#396,.F.);
#529=ORIENTED_EDGE('',*,*,#390,.T.);
#530=ORIENTED_EDGE('',*,*,#373,.T.);
#531=ORIENTED_EDGE('',*,*,#397,.F.);
#532=ORIENTED_EDGE('',*,*,#360,.T.);
#533=ORIENTED_EDGE('',*,*,#395,.T.);
#534=ORIENTED_EDGE('',*,*,#389,.T.);
#535=ORIENTED_EDGE('',*,*,#393,.T.);
#536=ORIENTED_EDGE('',*,*,#329,.T.);
#537=ORIENTED_EDGE('',*,*,#398,.T.);
#538=ORIENTED_EDGE('',*,*,#399,.T.);
#539=ORIENTED_EDGE('',*,*,#344,.F.);
#540=ORIENTED_EDGE('',*,*,#400,.F.);
#541=ORIENTED_EDGE('',*,*,#325,.F.);
#542=ORIENTED_EDGE('',*,*,#400,.T.);
#543=ORIENTED_EDGE('',*,*,#355,.F.);
#544=ORIENTED_EDGE('',*,*,#374,.T.);
#545=ORIENTED_EDGE('',*,*,#334,.F.);
#546=ORIENTED_EDGE('',*,*,#364,.T.);
#547=ORIENTED_EDGE('',*,*,#398,.F.);
#548=ORIENTED_EDGE('',*,*,#328,.F.);
#549=ORIENTED_EDGE('',*,*,#341,.T.);
#550=ORIENTED_EDGE('',*,*,#372,.T.);
#551=ORIENTED_EDGE('',*,*,#348,.F.);
#552=ORIENTED_EDGE('',*,*,#361,.F.);
#553=ORIENTED_EDGE('',*,*,#397,.T.);
#554=ORIENTED_EDGE('',*,*,#356,.T.);
#555=ORIENTED_EDGE('',*,*,#346,.T.);
#556=ORIENTED_EDGE('',*,*,#401,.F.);
#557=ORIENTED_EDGE('',*,*,#402,.F.);
#558=ORIENTED_EDGE('',*,*,#357,.T.);
#559=ORIENTED_EDGE('',*,*,#402,.T.);
#560=ORIENTED_EDGE('',*,*,#403,.F.);
#561=ORIENTED_EDGE('',*,*,#404,.F.);
#562=ORIENTED_EDGE('',*,*,#396,.T.);
#563=ORIENTED_EDGE('',*,*,#358,.T.);
#564=ORIENTED_EDGE('',*,*,#404,.T.);
#565=ORIENTED_EDGE('',*,*,#405,.F.);
#566=ORIENTED_EDGE('',*,*,#406,.F.);
#567=ORIENTED_EDGE('',*,*,#331,.T.);
#568=ORIENTED_EDGE('',*,*,#394,.T.);
#569=ORIENTED_EDGE('',*,*,#391,.T.);
#570=ORIENTED_EDGE('',*,*,#332,.T.);
#571=ORIENTED_EDGE('',*,*,#406,.T.);
#572=ORIENTED_EDGE('',*,*,#407,.F.);
#573=ORIENTED_EDGE('',*,*,#408,.F.);
#574=ORIENTED_EDGE('',*,*,#333,.T.);
#575=ORIENTED_EDGE('',*,*,#408,.T.);
#576=ORIENTED_EDGE('',*,*,#409,.F.);
#577=ORIENTED_EDGE('',*,*,#323,.F.);
#578=ORIENTED_EDGE('',*,*,#324,.T.);
#579=ORIENTED_EDGE('',*,*,#409,.T.);
#580=ORIENTED_EDGE('',*,*,#407,.T.);
#581=ORIENTED_EDGE('',*,*,#405,.T.);
#582=ORIENTED_EDGE('',*,*,#403,.T.);
#583=ORIENTED_EDGE('',*,*,#401,.T.);
#584=ORIENTED_EDGE('',*,*,#345,.T.);
#585=ORIENTED_EDGE('',*,*,#399,.F.);
#586=CYLINDRICAL_SURFACE('',#645,3.);
#587=CYLINDRICAL_SURFACE('',#652,3.);
#588=CYLINDRICAL_SURFACE('',#670,1.75);
#589=CYLINDRICAL_SURFACE('',#673,0.775);
#590=CYLINDRICAL_SURFACE('',#676,1.75);
#591=CYLINDRICAL_SURFACE('',#679,0.775);
#592=CYLINDRICAL_SURFACE('',#683,2.35);
#593=CYLINDRICAL_SURFACE('',#691,1.14999999999999);
#594=CYLINDRICAL_SURFACE('',#692,1.15);
#595=CYLINDRICAL_SURFACE('',#694,2.5);
#596=CYLINDRICAL_SURFACE('',#697,2.5);
#597=ADVANCED_FACE('',(#40),#586,.F.);
#598=ADVANCED_FACE('',(#41),#17,.F.);
#599=ADVANCED_FACE('',(#42),#18,.T.);
#600=ADVANCED_FACE('',(#43),#587,.F.);
#601=ADVANCED_FACE('',(#44),#19,.T.);
#602=ADVANCED_FACE('',(#45),#20,.F.);
#603=ADVANCED_FACE('',(#46),#21,.F.);
#604=ADVANCED_FACE('',(#47),#22,.F.);
#605=ADVANCED_FACE('',(#48),#23,.F.);
#606=ADVANCED_FACE('',(#49),#24,.T.);
#607=ADVANCED_FACE('',(#50),#25,.T.);
#608=ADVANCED_FACE('',(#51),#588,.T.);
#609=ADVANCED_FACE('',(#52),#26,.T.);
#610=ADVANCED_FACE('',(#53),#589,.F.);
#611=ADVANCED_FACE('',(#54,#15),#27,.F.);
#612=ADVANCED_FACE('',(#55),#590,.T.);
#613=ADVANCED_FACE('',(#56),#28,.T.);
#614=ADVANCED_FACE('',(#57),#591,.F.);
#615=ADVANCED_FACE('',(#58),#29,.T.);
#616=ADVANCED_FACE('',(#59,#16),#30,.F.);
#617=ADVANCED_FACE('',(#60),#592,.F.);
#618=ADVANCED_FACE('',(#61),#31,.F.);
#619=ADVANCED_FACE('',(#62),#32,.F.);
#620=ADVANCED_FACE('',(#63),#33,.T.);
#621=ADVANCED_FACE('',(#64),#34,.T.);
#622=ADVANCED_FACE('',(#65),#35,.T.);
#623=ADVANCED_FACE('',(#66),#593,.F.);
#624=ADVANCED_FACE('',(#67),#594,.F.);
#625=ADVANCED_FACE('',(#68),#36,.T.);
#626=ADVANCED_FACE('',(#69),#595,.T.);
#627=ADVANCED_FACE('',(#70),#37,.T.);
#628=ADVANCED_FACE('',(#71),#596,.T.);
#629=ADVANCED_FACE('',(#72),#38,.T.);
#630=ADVANCED_FACE('',(#73),#39,.T.);
#631=CLOSED_SHELL('',(#597,#598,#599,#600,#601,#602,#603,#604,#605,#606,
#607,#608,#609,#610,#611,#612,#613,#614,#615,#616,#617,#618,#619,#620,#621,
#622,#623,#624,#625,#626,#627,#628,#629,#630));
#632=DERIVED_UNIT_ELEMENT(#634,1.);
#633=DERIVED_UNIT_ELEMENT(#1067,-3.);
#634=(
MASS_UNIT()
NAMED_UNIT(*)
SI_UNIT(.KILO.,.GRAM.)
);
#635=DERIVED_UNIT((#632,#633));
#636=MEASURE_REPRESENTATION_ITEM('density measure',
POSITIVE_RATIO_MEASURE(7850.),#635);
#637=PROPERTY_DEFINITION_REPRESENTATION(#642,#639);
#638=PROPERTY_DEFINITION_REPRESENTATION(#643,#640);
#639=REPRESENTATION('material name',(#641),#1064);
#640=REPRESENTATION('density',(#636),#1064);
#641=DESCRIPTIVE_REPRESENTATION_ITEM('\X2\92FC\X0\','\X2\92FC\X0\');
#642=PROPERTY_DEFINITION('material property','material name',#1074);
#643=PROPERTY_DEFINITION('material property','density of part',#1074);
#644=AXIS2_PLACEMENT_3D('',#881,#701,#702);
#645=AXIS2_PLACEMENT_3D('',#882,#703,#704);
#646=AXIS2_PLACEMENT_3D('',#885,#705,#706);
#647=AXIS2_PLACEMENT_3D('',#889,#708,#709);
#648=AXIS2_PLACEMENT_3D('',#893,#712,#713);
#649=AXIS2_PLACEMENT_3D('',#897,#715,#716);
#650=AXIS2_PLACEMENT_3D('',#905,#720,#721);
#651=AXIS2_PLACEMENT_3D('',#907,#723,#724);
#652=AXIS2_PLACEMENT_3D('',#923,#733,#734);
#653=AXIS2_PLACEMENT_3D('',#926,#735,#736);
#654=AXIS2_PLACEMENT_3D('',#932,#739,#740);
#655=AXIS2_PLACEMENT_3D('',#934,#742,#743);
#656=AXIS2_PLACEMENT_3D('',#952,#753,#754);
#657=AXIS2_PLACEMENT_3D('',#956,#756,#757);
#658=AXIS2_PLACEMENT_3D('',#963,#761,#762);
#659=AXIS2_PLACEMENT_3D('',#964,#763,#764);
#660=AXIS2_PLACEMENT_3D('',#966,#765,#766);
#661=AXIS2_PLACEMENT_3D('',#967,#767,#768);
#662=AXIS2_PLACEMENT_3D('',#969,#769,#770);
#663=AXIS2_PLACEMENT_3D('',#970,#771,#772);
#664=AXIS2_PLACEMENT_3D('',#972,#773,#774);
#665=AXIS2_PLACEMENT_3D('',#976,#776,#777);
#666=AXIS2_PLACEMENT_3D('',#982,#781,#782);
#667=AXIS2_PLACEMENT_3D('',#985,#784,#785);
#668=AXIS2_PLACEMENT_3D('',#987,#787,#788);
#669=AXIS2_PLACEMENT_3D('',#989,#790,#791);
#670=AXIS2_PLACEMENT_3D('',#993,#794,#795);
#671=AXIS2_PLACEMENT_3D('',#996,#797,#798);
#672=AXIS2_PLACEMENT_3D('',#997,#799,#800);
#673=AXIS2_PLACEMENT_3D('',#999,#802,#803);
#674=AXIS2_PLACEMENT_3D('',#1001,#804,#805);
#675=AXIS2_PLACEMENT_3D('',#1003,#807,#808);
#676=AXIS2_PLACEMENT_3D('',#1004,#809,#810);
#677=AXIS2_PLACEMENT_3D('',#1008,#812,#813);
#678=AXIS2_PLACEMENT_3D('',#1010,#815,#816);
#679=AXIS2_PLACEMENT_3D('',#1012,#818,#819);
#680=AXIS2_PLACEMENT_3D('',#1014,#820,#821);
#681=AXIS2_PLACEMENT_3D('',#1016,#823,#824);
#682=AXIS2_PLACEMENT_3D('',#1018,#826,#827);
#683=AXIS2_PLACEMENT_3D('',#1019,#828,#829);
#684=AXIS2_PLACEMENT_3D('',#1022,#830,#831);
#685=AXIS2_PLACEMENT_3D('',#1026,#833,#834);
#686=AXIS2_PLACEMENT_3D('',#1028,#836,#837);
#687=AXIS2_PLACEMENT_3D('',#1031,#840,#841);
#688=AXIS2_PLACEMENT_3D('',#1034,#844,#845);
#689=AXIS2_PLACEMENT_3D('',#1037,#848,#849);
#690=AXIS2_PLACEMENT_3D('',#1040,#852,#853);
#691=AXIS2_PLACEMENT_3D('',#1041,#854,#855);
#692=AXIS2_PLACEMENT_3D('',#1042,#856,#857);
#693=AXIS2_PLACEMENT_3D('',#1043,#858,#859);
#694=AXIS2_PLACEMENT_3D('',#1047,#862,#863);
#695=AXIS2_PLACEMENT_3D('',#1049,#864,#865);
#696=AXIS2_PLACEMENT_3D('',#1051,#867,#868);
#697=AXIS2_PLACEMENT_3D('',#1055,#871,#872);
#698=AXIS2_PLACEMENT_3D('',#1057,#873,#874);
#699=AXIS2_PLACEMENT_3D('',#1059,#876,#877);
#700=AXIS2_PLACEMENT_3D('',#1061,#879,#880);
#701=DIRECTION('axis',(0.,0.,1.));
#702=DIRECTION('refdir',(1.,0.,0.));
#703=DIRECTION('center_axis',(0.,0.,1.));
#704=DIRECTION('ref_axis',(-1.,0.,0.));
#705=DIRECTION('center_axis',(0.,0.,1.));
#706=DIRECTION('ref_axis',(-1.,0.,0.));
#707=DIRECTION('',(0.,0.,1.));
#708=DIRECTION('center_axis',(0.,0.,-1.));
#709=DIRECTION('ref_axis',(-1.,0.,0.));
#710=DIRECTION('',(0.,0.,-1.));
#711=DIRECTION('',(0.,0.,1.));
#712=DIRECTION('center_axis',(0.,0.,1.));
#713=DIRECTION('ref_axis',(1.,0.,0.));
#714=DIRECTION('',(0.,-1.,0.));
#715=DIRECTION('center_axis',(0.,0.,1.));
#716=DIRECTION('ref_axis',(1.,3.86164530304404E-15,0.));
#717=DIRECTION('',(1.,0.,0.));
#718=DIRECTION('',(0.,1.,0.));
#719=DIRECTION('',(-1.,2.3373116307898E-16,0.));
#720=DIRECTION('center_axis',(0.,0.,1.));
#721=DIRECTION('ref_axis',(1.,0.,0.));
#722=DIRECTION('',(0.,1.,0.));
#723=DIRECTION('center_axis',(-1.,0.,0.));
#724=DIRECTION('ref_axis',(0.,-1.,0.));
#725=DIRECTION('',(0.,1.,0.));
#726=DIRECTION('',(0.,0.,1.));
#727=DIRECTION('',(0.,1.,0.));
#728=DIRECTION('',(0.,0.,-1.));
#729=DIRECTION('',(0.,1.,0.));
#730=DIRECTION('',(0.,0.,1.));
#731=DIRECTION('',(0.,1.,0.));
#732=DIRECTION('',(0.,0.,1.));
#733=DIRECTION('center_axis',(0.,0.,-1.));
#734=DIRECTION('ref_axis',(1.,0.,0.));
#735=DIRECTION('center_axis',(0.,0.,1.));
#736=DIRECTION('ref_axis',(1.,0.,0.));
#737=DIRECTION('',(0.,0.,-1.));
#738=DIRECTION('',(0.,0.,1.));
#739=DIRECTION('center_axis',(0.,0.,-1.));
#740=DIRECTION('ref_axis',(1.,0.,0.));
#741=DIRECTION('',(0.,0.,1.));
#742=DIRECTION('center_axis',(1.,0.,0.));
#743=DIRECTION('ref_axis',(0.,1.,0.));
#744=DIRECTION('',(0.,1.,0.));
#745=DIRECTION('',(0.,0.,1.));
#746=DIRECTION('',(0.,-1.,0.));
#747=DIRECTION('',(0.,0.,-1.));
#748=DIRECTION('',(0.,-1.,0.));
#749=DIRECTION('',(0.,0.,1.));
#750=DIRECTION('',(0.,-1.,0.));
#751=DIRECTION('',(0.,0.,-1.));
#752=DIRECTION('',(0.,-1.,0.));
#753=DIRECTION('center_axis',(0.,0.,1.));
#754=DIRECTION('ref_axis',(1.,0.,0.));
#755=DIRECTION('',(6.29244363939161E-17,-1.,0.));
#756=DIRECTION('center_axis',(0.,0.,1.));
#757=DIRECTION('ref_axis',(1.33226762955019E-15,1.,0.));
#758=DIRECTION('',(-1.,2.3373116307898E-16,0.));
#759=DIRECTION('',(0.,-1.,0.));
#760=DIRECTION('',(1.,0.,0.));
#761=DIRECTION('center_axis',(0.,0.,1.));
#762=DIRECTION('ref_axis',(6.75787928032703E-15,1.,0.));
#763=DIRECTION('center_axis',(0.,0.,1.));
#764=DIRECTION('ref_axis',(1.,0.,0.));
#765=DIRECTION('center_axis',(0.,0.,1.));
#766=DIRECTION('ref_axis',(1.,0.,0.));
#767=DIRECTION('center_axis',(0.,0.,1.));
#768=DIRECTION('ref_axis',(1.,0.,0.));
#769=DIRECTION('center_axis',(0.,0.,1.));
#770=DIRECTION('ref_axis',(1.,0.,0.));
#771=DIRECTION('center_axis',(0.,0.,1.));
#772=DIRECTION('ref_axis',(1.,0.,0.));
#773=DIRECTION('center_axis',(0.,0.,1.));
#774=DIRECTION('ref_axis',(1.,3.86164530304404E-15,0.));
#775=DIRECTION('',(1.,0.,0.));
#776=DIRECTION('center_axis',(0.,0.,-1.));
#777=DIRECTION('ref_axis',(1.,0.,0.));
#778=DIRECTION('',(-1.,1.06864188694419E-15,0.));
#779=DIRECTION('',(1.,0.,0.));
#780=DIRECTION('',(-1.,1.06864188694419E-15,0.));
#781=DIRECTION('center_axis',(0.,0.,-1.));
#782=DIRECTION('ref_axis',(1.,0.,0.));
#783=DIRECTION('',(1.,0.,0.));
#784=DIRECTION('center_axis',(0.,0.,1.));
#785=DIRECTION('ref_axis',(6.75787928032703E-15,1.,0.));
#786=DIRECTION('',(-1.,0.,0.));
#787=DIRECTION('center_axis',(0.,1.,0.));
#788=DIRECTION('ref_axis',(1.,0.,0.));
#789=DIRECTION('',(1.,0.,0.));
#790=DIRECTION('center_axis',(-1.06864188694419E-15,-1.,0.));
#791=DIRECTION('ref_axis',(-1.,1.06864188694419E-15,0.));
#792=DIRECTION('',(0.,0.,-1.));
#793=DIRECTION('',(1.,-1.06864188694419E-15,0.));
#794=DIRECTION('center_axis',(0.,0.,-1.));
#795=DIRECTION('ref_axis',(-1.,2.51875408193643E-8,0.));
#796=DIRECTION('',(0.,0.,-1.));
#797=DIRECTION('center_axis',(0.,0.,1.));
#798=DIRECTION('ref_axis',(1.,0.,0.));
#799=DIRECTION('center_axis',(0.,1.,0.));
#800=DIRECTION('ref_axis',(1.,0.,0.));
#801=DIRECTION('',(-1.,0.,0.));
#802=DIRECTION('center_axis',(0.,0.,-1.));
#803=DIRECTION('ref_axis',(1.,0.,0.));
#804=DIRECTION('center_axis',(0.,0.,-1.));
#805=DIRECTION('ref_axis',(1.,0.,0.));
#806=DIRECTION('',(0.,0.,1.));
#807=DIRECTION('center_axis',(0.,0.,1.));
#808=DIRECTION('ref_axis',(1.,0.,0.));
#809=DIRECTION('center_axis',(0.,0.,-1.));
#810=DIRECTION('ref_axis',(1.,0.,0.));
#811=DIRECTION('',(0.,0.,-1.));
#812=DIRECTION('center_axis',(0.,0.,1.));
#813=DIRECTION('ref_axis',(1.,0.,0.));
#814=DIRECTION('',(0.,0.,-1.));
#815=DIRECTION('center_axis',(0.,1.,0.));
#816=DIRECTION('ref_axis',(1.,0.,0.));
#817=DIRECTION('',(-1.,0.,0.));
#818=DIRECTION('center_axis',(0.,0.,-1.));
#819=DIRECTION('ref_axis',(1.,0.,0.));
#820=DIRECTION('center_axis',(0.,0.,-1.));
#821=DIRECTION('ref_axis',(1.,0.,0.));
#822=DIRECTION('',(0.,0.,1.));
#823=DIRECTION('center_axis',(-1.06864188694419E-15,-1.,0.));
#824=DIRECTION('ref_axis',(-1.,1.06864188694419E-15,0.));
#825=DIRECTION('',(1.,-1.06864188694419E-15,0.));
#826=DIRECTION('center_axis',(0.,0.,1.));
#827=DIRECTION('ref_axis',(1.,0.,0.));
#828=DIRECTION('center_axis',(0.,-1.,0.));
#829=DIRECTION('ref_axis',(-1.,0.,0.));
#830=DIRECTION('center_axis',(0.,1.,0.));
#831=DIRECTION('ref_axis',(-1.,0.,0.));
#832=DIRECTION('',(0.,-1.,0.));
#833=DIRECTION('center_axis',(-2.3373116307898E-16,-1.,0.));
#834=DIRECTION('ref_axis',(-1.,0.,0.));
#835=DIRECTION('',(0.,-1.,0.));
#836=DIRECTION('center_axis',(1.,0.,0.));
#837=DIRECTION('ref_axis',(0.,-4.64368237596812E-32,1.));
#838=DIRECTION('',(0.,0.,-1.));
#839=DIRECTION('',(0.,0.,1.));
#840=DIRECTION('center_axis',(-1.,0.,0.));
#841=DIRECTION('ref_axis',(0.,0.,-1.));
#842=DIRECTION('',(0.,0.,1.));
#843=DIRECTION('',(0.,0.,-1.));
#844=DIRECTION('center_axis',(0.,-1.,0.));
#845=DIRECTION('ref_axis',(1.,0.,0.));
#846=DIRECTION('',(0.,0.,1.));
#847=DIRECTION('',(0.,0.,1.));
#848=DIRECTION('center_axis',(0.,-1.,0.));
#849=DIRECTION('ref_axis',(-1.,0.,0.));
#850=DIRECTION('',(-1.,0.,0.));
#851=DIRECTION('',(-1.,0.,0.));
#852=DIRECTION('center_axis',(0.,0.,-1.));
#853=DIRECTION('ref_axis',(-1.,0.,0.));
#854=DIRECTION('center_axis',(0.,0.,1.));
#855=DIRECTION('ref_axis',(1.,3.86164530304404E-15,0.));
#856=DIRECTION('center_axis',(0.,0.,1.));
#857=DIRECTION('ref_axis',(6.75787928032703E-15,1.,0.));
#858=DIRECTION('center_axis',(-1.,-6.29244363939161E-17,0.));
#859=DIRECTION('ref_axis',(6.29244363939161E-17,-1.,0.));
#860=DIRECTION('',(6.29244363939161E-17,-1.,0.));
#861=DIRECTION('',(0.,0.,1.));
#862=DIRECTION('center_axis',(0.,0.,1.));
#863=DIRECTION('ref_axis',(1.33226762955019E-15,1.,0.));
#864=DIRECTION('center_axis',(0.,0.,1.));
#865=DIRECTION('ref_axis',(1.33226762955019E-15,1.,0.));
#866=DIRECTION('',(0.,0.,1.));
#867=DIRECTION('center_axis',(2.3373116307898E-16,1.,0.));
#868=DIRECTION('ref_axis',(-1.,2.3373116307898E-16,0.));
#869=DIRECTION('',(-1.,2.3373116307898E-16,0.));
#870=DIRECTION('',(0.,0.,1.));
#871=DIRECTION('center_axis',(0.,0.,1.));
#872=DIRECTION('ref_axis',(1.,0.,0.));
#873=DIRECTION('center_axis',(0.,0.,1.));
#874=DIRECTION('ref_axis',(1.,0.,0.));
#875=DIRECTION('',(0.,0.,1.));
#876=DIRECTION('center_axis',(1.,0.,0.));
#877=DIRECTION('ref_axis',(0.,1.,0.));
#878=DIRECTION('',(0.,1.,0.));
#879=DIRECTION('center_axis',(0.,0.,1.));
#880=DIRECTION('ref_axis',(1.,0.,0.));
#881=CARTESIAN_POINT('',(0.,0.,0.));
#882=CARTESIAN_POINT('Origin',(9.46651834597556,4.74330441317542,15.6));
#883=CARTESIAN_POINT('',(12.,6.35,1.6));
#884=CARTESIAN_POINT('',(10.65,7.5000001117587,1.6));
#885=CARTESIAN_POINT('Origin',(9.46651834597556,4.74330441317542,1.6));
#886=CARTESIAN_POINT('',(12.,6.35,15.6));
#887=CARTESIAN_POINT('',(12.,6.35,1.6));
#888=CARTESIAN_POINT('',(10.65,7.50000011175871,15.6));
#889=CARTESIAN_POINT('Origin',(9.46651834597556,4.74330441317542,15.6));
#890=CARTESIAN_POINT('',(10.65,7.50000011175871,6.75));
#891=CARTESIAN_POINT('',(10.65,7.50000011175871,8.6));
#892=CARTESIAN_POINT('',(10.65,7.5000001117587,15.6));
#893=CARTESIAN_POINT('Origin',(-2.22044604925031E-15,22.1125,1.6));
#894=CARTESIAN_POINT('',(10.65,35.375,1.6));
#895=CARTESIAN_POINT('',(10.65,35.375,1.6));
#896=CARTESIAN_POINT('',(9.5,36.525,1.6));
#897=CARTESIAN_POINT('Origin',(9.50000000000001,35.375,1.6));
#898=CARTESIAN_POINT('',(2.34999999999999,36.525,1.6));
#899=CARTESIAN_POINT('',(-9.5,36.525,1.6));
#900=CARTESIAN_POINT('',(2.34999999999999,37.875,1.6));
#901=CARTESIAN_POINT('',(2.34999999999999,29.99375,1.6));
#902=CARTESIAN_POINT('',(9.5,37.875,1.6));
#903=CARTESIAN_POINT('',(9.5,37.875,1.6));
#904=CARTESIAN_POINT('',(12.,35.375,1.6));
#905=CARTESIAN_POINT('Origin',(9.50000000000001,35.375,1.6));
#906=CARTESIAN_POINT('',(12.,-35.2,1.6));
#907=CARTESIAN_POINT('Origin',(10.65,35.375,1.6));
#908=CARTESIAN_POINT('',(10.65,8.85000011175871,6.75));
#909=CARTESIAN_POINT('',(10.65,21.7750000558794,6.75));
#910=CARTESIAN_POINT('',(10.65,8.85000011175871,14.25));
#911=CARTESIAN_POINT('',(10.65,8.85000011175871,8.6));
#912=CARTESIAN_POINT('',(10.65,31.25,14.25));
#913=CARTESIAN_POINT('',(10.65,29.0312500279397,14.25));
#914=CARTESIAN_POINT('',(10.65,31.25,1.7));
#915=CARTESIAN_POINT('',(10.65,31.25,8.6));
#916=CARTESIAN_POINT('',(10.65,34.75,1.7));
#917=CARTESIAN_POINT('',(10.65,34.1875,1.7));
#918=CARTESIAN_POINT('',(10.65,34.75,14.25));
#919=CARTESIAN_POINT('',(10.65,34.75,8.6));
#920=CARTESIAN_POINT('',(10.65,35.375,14.25));
#921=CARTESIAN_POINT('',(10.65,29.0312500279397,14.25));
#922=CARTESIAN_POINT('',(10.65,35.375,1.6));
#923=CARTESIAN_POINT('Origin',(-9.46651834597556,4.74330441317542,15.6));
#924=CARTESIAN_POINT('',(-10.65,7.5000001117587,1.6));
#925=CARTESIAN_POINT('',(-12.,6.35,1.6));
#926=CARTESIAN_POINT('Origin',(-9.46651834597556,4.74330441317542,1.6));
#927=CARTESIAN_POINT('',(-10.65,7.50000011175871,6.75));
#928=CARTESIAN_POINT('',(-10.65,7.5000001117587,15.6));
#929=CARTESIAN_POINT('',(-10.65,7.50000011175871,15.6));
#930=CARTESIAN_POINT('',(-10.65,7.50000011175871,8.6));
#931=CARTESIAN_POINT('',(-12.,6.35,15.6));
#932=CARTESIAN_POINT('Origin',(-9.46651834597556,4.74330441317542,15.6));
#933=CARTESIAN_POINT('',(-12.,6.35,1.6));
#934=CARTESIAN_POINT('Origin',(-10.65,6.35,1.6));
#935=CARTESIAN_POINT('',(-10.65,35.375,1.6));
#936=CARTESIAN_POINT('',(-10.65,-35.2,1.6));
#937=CARTESIAN_POINT('',(-10.65,35.375,14.25));
#938=CARTESIAN_POINT('',(-10.65,35.375,1.6));
#939=CARTESIAN_POINT('',(-10.65,34.75,14.25));
#940=CARTESIAN_POINT('',(-10.65,14.5187500279397,14.25));
#941=CARTESIAN_POINT('',(-10.65,34.75,1.7));
#942=CARTESIAN_POINT('',(-10.65,34.75,8.6));
#943=CARTESIAN_POINT('',(-10.65,31.25,1.7));
#944=CARTESIAN_POINT('',(-10.65,19.675,1.7));
#945=CARTESIAN_POINT('',(-10.65,31.25,14.25));
#946=CARTESIAN_POINT('',(-10.65,31.25,8.6));
#947=CARTESIAN_POINT('',(-10.65,8.85000011175871,14.25));
#948=CARTESIAN_POINT('',(-10.65,14.5187500279397,14.25));
#949=CARTESIAN_POINT('',(-10.65,8.85000011175871,6.75));
#950=CARTESIAN_POINT('',(-10.65,8.85000011175871,8.6));
#951=CARTESIAN_POINT('',(-10.65,7.26250005587935,6.75));
#952=CARTESIAN_POINT('Origin',(-2.22044604925031E-15,22.1125,1.6));
#953=CARTESIAN_POINT('',(-12.,35.375,1.6));
#954=CARTESIAN_POINT('',(-12.,35.375,1.6));
#955=CARTESIAN_POINT('',(-9.5,37.875,1.6));
#956=CARTESIAN_POINT('Origin',(-9.50000000000001,35.375,1.6));
#957=CARTESIAN_POINT('',(-2.35000000000001,37.875,1.6));
#958=CARTESIAN_POINT('',(9.5,37.875,1.6));
#959=CARTESIAN_POINT('',(-2.35000000000001,36.525,1.6));
#960=CARTESIAN_POINT('',(-2.35000000000001,29.99375,1.6));
#961=CARTESIAN_POINT('',(-9.5,36.525,1.6));
#962=CARTESIAN_POINT('',(-9.5,36.525,1.6));
#963=CARTESIAN_POINT('Origin',(-9.50000000000001,35.375,1.6));
#964=CARTESIAN_POINT('Origin',(-8.999994677591,33.,14.25));
#965=CARTESIAN_POINT('',(-9.774994677591,33.,14.25));
#966=CARTESIAN_POINT('Origin',(-8.999994677591,33.,14.25));
#967=CARTESIAN_POINT('Origin',(9.000005322409,33.,14.25));
#968=CARTESIAN_POINT('',(8.225005322409,33.,14.25));
#969=CARTESIAN_POINT('Origin',(9.000005322409,33.,14.25));
#970=CARTESIAN_POINT('Origin',(-4.44089209850063E-15,22.6875000558794,14.25));
#971=CARTESIAN_POINT('',(9.5,36.525,14.25));
#972=CARTESIAN_POINT('Origin',(9.50000000000001,35.375,14.25));
#973=CARTESIAN_POINT('',(9.0000054105654,34.75,14.25));
#974=CARTESIAN_POINT('',(4.5000027052827,34.75,14.25));
#975=CARTESIAN_POINT('',(9.000005322409,31.25,14.25));
#976=CARTESIAN_POINT('Origin',(9.000005322409,33.,14.25));
#977=CARTESIAN_POINT('',(5.325,31.25,14.25));
#978=CARTESIAN_POINT('',(-5.325,8.85000011175871,14.25));
#979=CARTESIAN_POINT('',(-8.99999465906503,31.25,14.25));
#980=CARTESIAN_POINT('',(-4.49999732953251,31.25,14.25));
#981=CARTESIAN_POINT('',(-8.99999458943464,34.75,14.25));
#982=CARTESIAN_POINT('Origin',(-8.999994677591,33.,14.25));
#983=CARTESIAN_POINT('',(-5.32500000000001,34.75,14.25));
#984=CARTESIAN_POINT('',(-9.5,36.525,14.25));
#985=CARTESIAN_POINT('Origin',(-9.50000000000001,35.375,14.25));
#986=CARTESIAN_POINT('',(-4.75,36.525,14.25));
#987=CARTESIAN_POINT('Origin',(-10.65,8.85000011175871,15.6));
#988=CARTESIAN_POINT('',(-12.0000001788139,8.85000011175871,6.75));
#989=CARTESIAN_POINT('Origin',(10.65,31.25,15.6));
#990=CARTESIAN_POINT('',(9.000005322409,31.25,1.7));
#991=CARTESIAN_POINT('',(9.000005322409,31.25,15.6));
#992=CARTESIAN_POINT('',(5.32499999999999,31.25,1.7));
#993=CARTESIAN_POINT('Origin',(9.000005322409,33.,15.6));
#994=CARTESIAN_POINT('',(9.0000054105654,34.75,1.7));
#995=CARTESIAN_POINT('',(9.0000054105654,34.75,15.6));
#996=CARTESIAN_POINT('Origin',(9.000005322409,33.,1.7));
#997=CARTESIAN_POINT('Origin',(9.0000054105654,34.75,15.6));
#998=CARTESIAN_POINT('',(4.50000270528269,34.75,1.7));
#999=CARTESIAN_POINT('Origin',(9.000005322409,33.,15.6));
#1000=CARTESIAN_POINT('',(8.225005322409,33.,1.7));
#1001=CARTESIAN_POINT('Origin',(9.000005322409,33.,1.7));
#1002=CARTESIAN_POINT('',(8.225005322409,33.,15.6));
#1003=CARTESIAN_POINT('Origin',(-9.99200722162641E-15,33.,1.7));
#1004=CARTESIAN_POINT('Origin',(-8.999994677591,33.,15.6));
#1005=CARTESIAN_POINT('',(-8.99999465906503,31.25,1.7));
#1006=CARTESIAN_POINT('',(-8.99999465906503,31.25,15.6));
#1007=CARTESIAN_POINT('',(-8.99999458943464,34.75,1.7));
#1008=CARTESIAN_POINT('Origin',(-8.999994677591,33.,1.7));
#1009=CARTESIAN_POINT('',(-8.99999458943464,34.75,15.6));
#1010=CARTESIAN_POINT('Origin',(-10.65,34.75,15.6));
#1011=CARTESIAN_POINT('',(-5.32500000000001,34.75,1.7));
#1012=CARTESIAN_POINT('Origin',(-8.999994677591,33.,15.6));
#1013=CARTESIAN_POINT('',(-9.774994677591,33.,1.7));
#1014=CARTESIAN_POINT('Origin',(-8.999994677591,33.,1.7));
#1015=CARTESIAN_POINT('',(-9.774994677591,33.,15.6));
#1016=CARTESIAN_POINT('Origin',(-8.99999465906503,31.25,15.6));
#1017=CARTESIAN_POINT('',(-4.49999732953252,31.25,1.7));
#1018=CARTESIAN_POINT('Origin',(-9.99200722162641E-15,33.,1.7));
#1019=CARTESIAN_POINT('Origin',(-1.03502991387166E-14,37.875,4.095));
#1020=CARTESIAN_POINT('',(-2.35000000000001,36.525,4.095));
#1021=CARTESIAN_POINT('',(2.34999999999999,36.525,4.095));
#1022=CARTESIAN_POINT('Origin',(-1.03502991387166E-14,36.525,4.095));
#1023=CARTESIAN_POINT('',(-2.35000000000001,37.875,4.095));
#1024=CARTESIAN_POINT('',(-2.35000000000001,37.875,4.095));
#1025=CARTESIAN_POINT('',(2.34999999999999,37.875,4.095));
#1026=CARTESIAN_POINT('Origin',(-1.03502991387166E-14,37.875,4.095));
#1027=CARTESIAN_POINT('',(2.34999999999999,37.875,4.095));
#1028=CARTESIAN_POINT('Origin',(2.34999999999999,37.875,1.6));
#1029=CARTESIAN_POINT('',(2.34999999999999,36.525,1.6));
#1030=CARTESIAN_POINT('',(2.34999999999999,37.875,1.6));
#1031=CARTESIAN_POINT('Origin',(-2.35000000000001,37.875,4.095));
#1032=CARTESIAN_POINT('',(-2.35000000000001,36.525,2.8475));
#1033=CARTESIAN_POINT('',(-2.35000000000001,37.875,2.8475));
#1034=CARTESIAN_POINT('Origin',(-9.5,36.525,1.6));
#1035=CARTESIAN_POINT('',(-9.5,36.525,1.6));
#1036=CARTESIAN_POINT('',(9.5,36.525,1.6));
#1037=CARTESIAN_POINT('Origin',(10.65,7.50000011175871,15.6));
#1038=CARTESIAN_POINT('',(12.0000001788139,7.50000011175871,15.6));
#1039=CARTESIAN_POINT('',(12.0000001788139,7.50000011175871,6.75));
#1040=CARTESIAN_POINT('Origin',(0.,8.17500011175871,6.75));
#1041=CARTESIAN_POINT('Origin',(9.50000000000001,35.375,1.6));
#1042=CARTESIAN_POINT('Origin',(-9.50000000000001,35.375,1.6));
#1043=CARTESIAN_POINT('Origin',(-12.,35.375,1.6));
#1044=CARTESIAN_POINT('',(-12.,35.375,15.6));
#1045=CARTESIAN_POINT('',(-12.,35.375,15.6));
#1046=CARTESIAN_POINT('',(-12.,35.375,1.6));
#1047=CARTESIAN_POINT('Origin',(-9.50000000000001,35.375,1.6));
#1048=CARTESIAN_POINT('',(-9.5,37.875,15.6));
#1049=CARTESIAN_POINT('Origin',(-9.50000000000001,35.375,15.6));
#1050=CARTESIAN_POINT('',(-9.5,37.875,1.6));
#1051=CARTESIAN_POINT('Origin',(9.5,37.875,1.6));
#1052=CARTESIAN_POINT('',(9.5,37.875,15.6));
#1053=CARTESIAN_POINT('',(9.5,37.875,15.6));
#1054=CARTESIAN_POINT('',(9.5,37.875,1.6));
#1055=CARTESIAN_POINT('Origin',(9.50000000000001,35.375,1.6));
#1056=CARTESIAN_POINT('',(12.,35.375,15.6));
#1057=CARTESIAN_POINT('Origin',(9.50000000000001,35.375,15.6));
#1058=CARTESIAN_POINT('',(12.,35.375,1.6));
#1059=CARTESIAN_POINT('Origin',(12.,6.35,1.6));
#1060=CARTESIAN_POINT('',(12.,-35.2,15.6));
#1061=CARTESIAN_POINT('Origin',(-2.22044604925031E-15,22.1125,15.6));
#1062=UNCERTAINTY_MEASURE_WITH_UNIT(LENGTH_MEASURE(0.01),#1066,
'DISTANCE_ACCURACY_VALUE',
'Maximum model space distance between geometric entities at asserted c
onnectivities');
#1063=UNCERTAINTY_MEASURE_WITH_UNIT(LENGTH_MEASURE(0.01),#1066,
'DISTANCE_ACCURACY_VALUE',
'Maximum model space distance between geometric entities at asserted c
onnectivities');
#1064=(
GEOMETRIC_REPRESENTATION_CONTEXT(3)
GLOBAL_UNCERTAINTY_ASSIGNED_CONTEXT((#1062))
GLOBAL_UNIT_ASSIGNED_CONTEXT((#1066,#1068,#1069))
REPRESENTATION_CONTEXT('','3D')
);
#1065=(
GEOMETRIC_REPRESENTATION_CONTEXT(3)
GLOBAL_UNCERTAINTY_ASSIGNED_CONTEXT((#1063))
GLOBAL_UNIT_ASSIGNED_CONTEXT((#1066,#1068,#1069))
REPRESENTATION_CONTEXT('','3D')
);
#1066=(
LENGTH_UNIT()
NAMED_UNIT(*)
SI_UNIT(.MILLI.,.METRE.)
);
#1067=(
LENGTH_UNIT()
NAMED_UNIT(*)
SI_UNIT($,.METRE.)
);
#1068=(
NAMED_UNIT(*)
PLANE_ANGLE_UNIT()
SI_UNIT($,.RADIAN.)
);
#1069=(
NAMED_UNIT(*)
SI_UNIT($,.STERADIAN.)
SOLID_ANGLE_UNIT()
);
#1070=SHAPE_DEFINITION_REPRESENTATION(#1071,#1072);
#1071=PRODUCT_DEFINITION_SHAPE('',$,#1074);
#1072=SHAPE_REPRESENTATION('',(#644),#1064);
#1073=PRODUCT_DEFINITION_CONTEXT('part definition',#1078,'design');
#1074=PRODUCT_DEFINITION('2026-07-10-00-08-23-330','UpperBody',#1075,#1073);
#1075=PRODUCT_DEFINITION_FORMATION('',$,#1080);
#1076=PRODUCT_RELATED_PRODUCT_CATEGORY('UpperBody','UpperBody',(#1080));
#1077=APPLICATION_PROTOCOL_DEFINITION('international standard',
'automotive_design',2009,#1078);
#1078=APPLICATION_CONTEXT(
'Core Data for Automotive Mechanical Design Process');
#1079=PRODUCT_CONTEXT('part definition',#1078,'mechanical');
#1080=PRODUCT('2026-07-10-00-08-23-330','UpperBody',$,(#1079));
#1081=PRESENTATION_STYLE_ASSIGNMENT((#1082));
#1082=SURFACE_STYLE_USAGE(.BOTH.,#1083);
#1083=SURFACE_SIDE_STYLE('',(#1084));
#1084=SURFACE_STYLE_FILL_AREA(#1085);
#1085=FILL_AREA_STYLE('\X2\92FC\X0\ - \X2\30B530C630F3\X0\',(#1086));
#1086=FILL_AREA_STYLE_COLOUR('\X2\92FC\X0\ - \X2\30B530C630F3\X0\',#1087);
#1087=COLOUR_RGB('\X2\92FC\X0\ - \X2\30B530C630F3\X0\',0.627450980392157,
0.627450980392157,0.627450980392157);
ENDSEC;
END-ISO-10303-21;
